<?xml version="1.0" encoding="UTF-8" standalone="no"?>
<!-- Created with Inkscape (http://www.inkscape.org/) -->

<svg
   xmlns:dc="http://purl.org/dc/elements/1.1/"
   xmlns:cc="http://creativecommons.org/ns#"
   xmlns:rdf="http://www.w3.org/1999/02/22-rdf-syntax-ns#"
   xmlns:svg="http://www.w3.org/2000/svg"
   xmlns="http://www.w3.org/2000/svg"
   xmlns:sodipodi="http://sodipodi.sourceforge.net/DTD/sodipodi-0.dtd"
   xmlns:inkscape="http://www.inkscape.org/namespaces/inkscape"
   width="210mm"
   height="297mm"
   id="svg2"
   version="1.1"
   inkscape:version="0.48.1 r9760"
   sodipodi:docname="bicicletada-20120302-nacional.svg"
   inkscape:export-filename="/home/vinicius/docs/bicicletada/bicicletada-20120302-nacional.png"
   inkscape:export-xdpi="90"
   inkscape:export-ydpi="90">
  <defs
     id="defs4">
    <marker
       orient="auto"
       markerHeight="3"
       markerWidth="4"
       markerUnits="strokeWidth"
       refY="5"
       refX="10"
       viewBox="0 0 10 10"
       id="ArrowStart">
      <path
         id="path3153"
         d="M 10 0 L 0 5 L 10 10 z" />
    </marker>
    <marker
       orient="auto"
       markerHeight="3"
       markerWidth="4"
       markerUnits="strokeWidth"
       refY="5"
       refX="0"
       viewBox="0 0 10 10"
       id="ArrowEnd">
      <path
         id="path3150"
         d="M 0 0 L 10 5 L 0 10 z" />
    </marker>
    <filter
       id="filter3395"
       inkscape:label="Drop shadow"
       width="1.5"
       height="1.5"
       x="-.25"
       y="-.25">
      <feGaussianBlur
         id="feGaussianBlur3397"
         in="SourceAlpha"
         stdDeviation="4"
         result="blur" />
      <feColorMatrix
         id="feColorMatrix3399"
         result="bluralpha"
         type="matrix"
         values="1 0 0 0 0 0 1 0 0 0 0 0 1 0 0 0 0 0 0.5 0 " />
      <feOffset
         id="feOffset3401"
         in="bluralpha"
         dx="5"
         dy="5"
         result="offsetBlur" />
      <feMerge
         id="feMerge3403">
        <feMergeNode
           id="feMergeNode3405"
           in="offsetBlur" />
        <feMergeNode
           id="feMergeNode3407"
           in="SourceGraphic" />
      </feMerge>
    </filter>
    <filter
       id="filter3423"
       inkscape:label="Drop shadow"
       width="1.5"
       height="1.5"
       x="-.25"
       y="-.25">
      <feGaussianBlur
         id="feGaussianBlur3425"
         in="SourceAlpha"
         stdDeviation="4"
         result="blur" />
      <feColorMatrix
         id="feColorMatrix3427"
         result="bluralpha"
         type="matrix"
         values="1 0 0 0 0 0 1 0 0 0 0 0 1 0 0 0 0 0 0.5 0 " />
      <feOffset
         id="feOffset3429"
         in="bluralpha"
         dx="5"
         dy="5"
         result="offsetBlur" />
      <feMerge
         id="feMerge3431">
        <feMergeNode
           id="feMergeNode3433"
           in="offsetBlur" />
        <feMergeNode
           id="feMergeNode3435"
           in="SourceGraphic" />
      </feMerge>
    </filter>
    <filter
       id="filter3437"
       inkscape:label="Drop shadow"
       width="1.5"
       height="1.5"
       x="-.25"
       y="-.25">
      <feGaussianBlur
         id="feGaussianBlur3439"
         in="SourceAlpha"
         stdDeviation="4"
         result="blur" />
      <feColorMatrix
         id="feColorMatrix3441"
         result="bluralpha"
         type="matrix"
         values="1 0 0 0 0 0 1 0 0 0 0 0 1 0 0 0 0 0 0.5 0 " />
      <feOffset
         id="feOffset3443"
         in="bluralpha"
         dx="5"
         dy="5"
         result="offsetBlur" />
      <feMerge
         id="feMerge3445">
        <feMergeNode
           id="feMergeNode3447"
           in="offsetBlur" />
        <feMergeNode
           id="feMergeNode3449"
           in="SourceGraphic" />
      </feMerge>
    </filter>
    <filter
       id="filter3489"
       inkscape:label="Drop shadow"
       width="1.5"
       height="1.5"
       x="-.25"
       y="-.25">
      <feGaussianBlur
         id="feGaussianBlur3491"
         in="SourceAlpha"
         stdDeviation="4"
         result="blur" />
      <feColorMatrix
         id="feColorMatrix3493"
         result="bluralpha"
         type="matrix"
         values="1 0 0 0 0 0 1 0 0 0 0 0 1 0 0 0 0 0 0.5 0 " />
      <feOffset
         id="feOffset3495"
         in="bluralpha"
         dx="5"
         dy="5"
         result="offsetBlur" />
      <feMerge
         id="feMerge3497">
        <feMergeNode
           id="feMergeNode3499"
           in="offsetBlur" />
        <feMergeNode
           id="feMergeNode3501"
           in="SourceGraphic" />
      </feMerge>
    </filter>
  </defs>
  <sodipodi:namedview
     id="base"
     pagecolor="#ffffff"
     bordercolor="#666666"
     borderopacity="1.0"
     inkscape:pageopacity="0.0"
     inkscape:pageshadow="2"
     inkscape:zoom="0.35"
     inkscape:cx="675.504"
     inkscape:cy="712.5214"
     inkscape:document-units="px"
     inkscape:current-layer="g3159"
     showgrid="false"
     inkscape:window-width="1360"
     inkscape:window-height="719"
     inkscape:window-x="0"
     inkscape:window-y="23"
     inkscape:window-maximized="1" />
  <metadata
     id="metadata7">
    <rdf:RDF>
      <cc:Work
         rdf:about="">
        <dc:format>image/svg+xml</dc:format>
        <dc:type
           rdf:resource="http://purl.org/dc/dcmitype/StillImage" />
        <dc:title></dc:title>
      </cc:Work>
    </rdf:RDF>
  </metadata>
  <g
     inkscape:label="Camada 1"
     inkscape:groupmode="layer"
     id="layer1">
    <g
       style="fill-rule:evenodd"
       id="g3195"
       transform="matrix(1.25,0,0,1.25,-71.143042,20.175785)">
      <g
         id="g3155">
        <g
           id="g3157"
           transform="translate(42.022346,-59.801031)">
          <g
             id="g3159">
            <path
               id="path3161"
               d="m 296.93523,393.6781 c 21.906,-14.218 5.311,-22.34 4.39,-41.39 -7.533,-27.45 29.6,-40.8196 52.049,0 -0.887,3.946 -3.232,7.697 -8.779,10.661 -0.923,10.05 -3.002,19.471 -13.169,24.457 -4.607,10.459 -2.308,18.608 3.135,25.712 6.476,12.953 18.391,27.586 35.745,43.897 5.852,5.644 29.284,-3.824 17.559,16.932 -5.866,14.529 7.106,28.428 10.661,42.644 40.01,2.858 77.175,19.008 65.846,70.236 -1.914,17.199 -9.78,26.132 -22.576,28.219 -56.672,26.46 -96.352,-40.755 -52.049,-94.693 0.99,-7.432 -2.655,-11.614 -10.034,-13.169 -7.525,14.004 -15.051,28.01 -22.576,42.016 -3.979,9.835 -2.098,17.149 5.644,21.949 2.253,65.548 96.77,101.325 113.506,0.627 0.719,-5.556 2.377,-10.377 10.661,-10.034 6.062,-0.419 12.123,-0.836 18.186,-1.254 8.121,1.74 15.847,4.066 11.288,24.457 -2.158,21.613 -14.754,41.729 -34.491,60.83 -24.466,43.603 -55.13,81.939 -129.184,83.405 -38.366,-1.09 -72.642,-14.464 -100.964,-45.779 -26.654,-28.813 -46.402,-19.217 -70.86,-30.712 -20.074,-11.915 -37.217,-33.406 -43.901,-59.591 -5.025,-13.191 -0.845,-21.343 12.543,-24.458 11.645,-4.696 19.301,-0.192 22.575,14.424 13.807,33.018 36.128,42.393 60.83,45.152 10.044,-1.66 11.092,-11.295 -0.627,-13.797 -70.064,-7.004 -63.574,-97.536 -7.774,-92.385 10.24,0.944 15.341,1.175 20.316,-8.579 2.091,-5.017 4.182,-10.034 6.271,-15.051 -6.821,-5.414 -11.855,-11.671 -4.39,-23.83 6.373,-35.433 25.396,-60.519 50.169,-80.896 z m 27.853,36.594 c -5.126,-6.613 -10.254,-5.667 -15.383,2.834 -3.976,7.555 -7.952,15.111 -11.929,22.668 -4.709,9.339 -1.463,15.739 9.732,19.206 19.837,6.294 27.866,1.972 39.24,1.259 18.211,-1.418 16.847,-8.031 6.592,-17.002 -9.417,-9.655 -18.835,-19.31 -28.252,-28.965 z m 46.461,275.802 c 1.15,-13.957 2.3,-27.915 3.452,-41.874 -0.105,-7.976 2.72,-11.754 8.477,-11.335 10.987,0 21.973,0 32.962,0 8.08,-1.066 20.199,2.302 11.615,21.41 -11.092,20.884 -26.791,33.793 -47.089,38.725 -6.49,1.888 -9.627,-0.421 -9.417,-6.926 z m -113.013,-54.469 c -4.945,-7.61 -9.442,2.986 -5.338,9.446 27.625,45.676 61.213,60.945 98.887,55.412 12.095,-2.753 8.565,-13.336 8.162,-22.354 -19.525,17.214 -46.417,-4.617 -38.3,-20.15 6.421,-27.089 25.338,-16.322 40.183,3.779 9.73,-18.997 4.393,-27.917 -16.009,-26.762 -18.103,0.21 -36.207,0.42 -54.31,0.629 -6.738,0.106 -11.788,1.258 -14.755,4.723 -11.263,15.914 -13.773,1.747 -18.52,-4.723 z m 149.487,-99.905 c -3.331,-8.345 -12.384,-6.349 -14.177,5.751 -7.06,59.107 84.774,24.48 33.131,-17.252 -9.186,-5.644 -16.407,2.237 -10.671,8.786 9.114,12.4 1.333,21.827 -8.283,2.715 z m -74.3,-53.088 c -2.04,10.547 -4.08,21.093 -6.121,31.641 -0.77,5.718 -2.193,10.957 4.395,14.797 2.877,1.626 5.755,3.252 8.633,4.879 4.497,2.567 10.032,-1.354 12.558,-7.555 4.395,-12.908 8.79,-25.817 13.185,-38.725 4.605,-11.833 -1.726,-14.718 -13.028,-13.538 -9.097,0.613 -16.816,2.426 -19.622,8.501 z m -53.838,5.824 c 5.702,9.759 11.406,19.52 17.11,29.28 5.454,8.903 9.266,1.543 9.417,-6.454 0.261,-5.982 0.522,-11.964 0.784,-17.947 -0.053,-6.868 -3.926,-10.541 -11.614,-11.018 -3.191,-0.472 -6.383,-0.944 -9.575,-1.416 -5.708,-1.209 -8.79,1.259 -6.122,7.555 z m -51.798,42.976 c 3.552,-8.17 -3.642,-8.899 -10.988,-5.038 -22.659,14.829 -19.462,38.592 1.099,50.532 21.586,8.071 35.823,-6.786 37.516,-28.965 -1.623,-10.915 -12.192,-16.321 -17.11,-8.658 -1.728,4.249 -3.455,8.499 -5.181,12.75 -3.637,8.263 -15.197,3.333 -11.143,-5.981 1.936,-4.881 3.871,-9.76 5.807,-14.64 z m 38.457,-33.531 c -2.144,2.833 -4.29,5.667 -6.435,8.501 -2.93,6.876 -1.883,12.071 3.139,15.585 18.57,19.611 20.661,39.68 9.1,60.133 -3.152,5.422 2.126,10.42 7.534,2.519 4.157,-5.601 6.618,-14.444 6.593,-28.02 0.395,-6.682 2.606,-7.904 4.709,-9.446 4.122,-4.382 4.671,-9.789 0,-16.687 -6.174,-10.705 -12.348,-21.41 -18.523,-32.113 -2.038,-2.73 -4.081,-3.62 -6.117,-0.472 z"
               style="fill:#1a1a1a;stroke:none;filter:url(#filter3395)"
               inkscape:connector-curvature="0"
               transform="matrix(0.53450627,0,0,0.53450627,134.21054,131.31397)" />
            <text
               xml:space="preserve"
               style="font-size:32px;font-style:normal;font-variant:normal;font-weight:bold;font-stretch:normal;text-align:center;line-height:125%;letter-spacing:0px;word-spacing:0px;text-anchor:middle;fill:#1a1a1a;fill-opacity:1;stroke:none;filter:url(#filter3437);font-family:Arial;-inkscape-font-specification:Arial Bold"
               x="315.69742"
               y="112.52159"
               id="text3409"
               sodipodi:linespacing="125%"><tspan
                 sodipodi:role="line"
                 id="tspan3411"
                 x="315.69742"
                 y="112.52159"
                 style="font-size:38.40000152999999727px;font-style:normal;font-variant:normal;font-weight:bold;font-stretch:normal;font-family:Impact;-inkscape-font-specification:Impact Bold;fill:#1a1a1a">BICICLETADA NACIONAL</tspan><tspan
                 sodipodi:role="line"
                 x="315.69742"
                 y="160.52161"
                 id="tspan3415"
                 style="font-size:38.40000152999999727px;font-style:normal;font-variant:normal;font-weight:bold;font-stretch:normal;font-family:Impact;-inkscape-font-specification:Impact Bold;fill:#1a1a1a">EXTRAORDINÁRIA EM</tspan></text>
            <text
               xml:space="preserve"
               style="font-size:121.81480408000000182px;font-style:normal;font-variant:normal;font-weight:bold;font-stretch:normal;line-height:125%;letter-spacing:0px;word-spacing:0px;fill:#1a1a1a;fill-opacity:1;stroke:none;filter:url(#filter3423);font-family:Arial;-inkscape-font-specification:Arial Bold"
               x="56.636711"
               y="280.08319"
               id="text3419"
               sodipodi:linespacing="125%"><tspan
                 sodipodi:role="line"
                 id="tspan3421"
                 x="56.636711"
                 y="280.08319"
                 style="font-style:normal;font-variant:normal;font-weight:bold;font-stretch:normal;font-family:Impact;-inkscape-font-specification:Impact Bold;fill:#1a1a1a"><tspan
   style="font-size:176px;fill:#1a1a1a"
   id="tspan3645">C</tspan>URITIB<tspan
   style="font-size:176px;fill:#1a1a1a"
   id="tspan3651">A</tspan></tspan></text>
            <text
               xml:space="preserve"
               style="font-size:40px;font-style:normal;font-variant:normal;font-weight:bold;font-stretch:normal;line-height:125%;letter-spacing:0px;word-spacing:0px;fill:#000000;fill-opacity:1;stroke:none;font-family:Arial;-inkscape-font-specification:Arial Bold"
               x="84.285713"
               y="803.79077"
               id="text3451"
               sodipodi:linespacing="125%"
               transform="matrix(0.8,0,0,0.8,14.892088,43.660403)"><tspan
                 sodipodi:role="line"
                 id="tspan3453"></tspan></text>
            <text
               xml:space="preserve"
               style="font-size:40px;font-style:normal;font-variant:normal;font-weight:bold;font-stretch:normal;line-height:125%;letter-spacing:0px;word-spacing:0px;fill:#000000;fill-opacity:1;stroke:none;font-family:Arial;-inkscape-font-specification:Arial Bold"
               x="1088.9445"
               y="114.94062"
               id="text3467"
               sodipodi:linespacing="125%"
               transform="matrix(0.8,0,0,0.8,14.892088,43.660403)"><tspan
                 sodipodi:role="line"
                 id="tspan3469"></tspan></text>
            <g
               id="g3511"
               transform="translate(-6.4,225.32394)"
               style="fill:#1a1a1a">
              <text
                 sodipodi:linespacing="125%"
                 id="text3463"
                 y="366.36847"
                 x="196.48642"
                 style="font-size:61.61764526000000330px;font-style:normal;font-variant:normal;font-weight:bold;font-stretch:normal;line-height:125%;letter-spacing:0px;word-spacing:0px;fill:#1a1a1a;fill-opacity:1;stroke:none;filter:url(#filter3489);font-family:Arial;-inkscape-font-specification:Arial Bold"
                 xml:space="preserve"><tspan
                   style="font-style:normal;font-variant:normal;font-weight:bold;font-stretch:normal;font-family:Impact;-inkscape-font-specification:Impact Bold;fill:#1a1a1a"
                   y="366.36847"
                   x="196.48642"
                   id="tspan3465"
                   sodipodi:role="line">06/03 19h</tspan></text>
              <text
                 xml:space="preserve"
                 style="font-size:32px;font-style:normal;font-variant:normal;font-weight:bold;font-stretch:normal;text-align:center;line-height:125%;letter-spacing:0px;word-spacing:0px;text-anchor:middle;fill:#1a1a1a;fill-opacity:1;stroke:none;filter:url(#filter3437);font-family:Arial;-inkscape-font-specification:Arial Bold"
                 x="322.09744"
                 y="403.42929"
                 id="text3503"
                 sodipodi:linespacing="125%"><tspan
                   sodipodi:role="line"
                   x="322.09744"
                   y="403.42929"
                   id="tspan3507"
                   style="font-size:38.40000152999999727px;font-style:normal;font-variant:normal;font-weight:bold;font-stretch:normal;font-family:Impact;-inkscape-font-specification:Impact Bold;fill:#1a1a1a">PÁTIO DA REITORIA</tspan></text>
            </g>
            <text
               sodipodi:linespacing="125%"
               id="text3619"
               y="690.17151"
               x="317.29742"
               style="font-size:32px;font-style:normal;font-variant:normal;font-weight:bold;font-stretch:normal;text-align:center;line-height:125%;letter-spacing:0px;word-spacing:0px;text-anchor:middle;fill:#1a1a1a;fill-opacity:1;stroke:none;filter:url(#filter3437);font-family:Arial;-inkscape-font-specification:Arial Bold"
               xml:space="preserve"><tspan
                 style="font-size:38.40000152999999727px;font-style:normal;font-variant:normal;font-weight:bold;font-stretch:normal;font-family:Impact;-inkscape-font-specification:Impact Bold;fill:#1a1a1a"
                 y="690.17151"
                 x="317.29742"
                 sodipodi:role="line"
                 id="tspan3633">OCUPAÇÃO DAS RUAS</tspan><tspan
                 style="font-size:38.40000152999999727px;font-style:normal;font-variant:normal;font-weight:bold;font-stretch:normal;font-family:Impact;-inkscape-font-specification:Impact Bold;fill:#1a1a1a"
                 y="738.17151"
                 x="317.29742"
                 sodipodi:role="line"
                 id="tspan3643">EM SOLIDARIEDADE</tspan><tspan
                 style="font-size:38.40000152999999727px;font-style:normal;font-variant:normal;font-weight:bold;font-stretch:normal;font-family:Impact;-inkscape-font-specification:Impact Bold;fill:#1a1a1a"
                 y="786.17151"
                 x="317.29742"
                 sodipodi:role="line"
                 id="tspan3641">ÀS VÍTIMAS DO TRÂNSITO</tspan><tspan
                 style="font-size:38.40000152999999727px;font-style:normal;font-variant:normal;font-weight:bold;font-stretch:normal;font-family:Impact;-inkscape-font-specification:Impact Bold;fill:#1a1a1a"
                 id="tspan3623"
                 y="834.17151"
                 x="317.29742"
                 sodipodi:role="line" /></text>
            <text
               xml:space="preserve"
               style="font-size:32px;font-style:normal;font-variant:normal;font-weight:bold;font-stretch:normal;text-align:center;line-height:125%;letter-spacing:0px;word-spacing:0px;text-anchor:middle;fill:#1a1a1a;fill-opacity:1;stroke:none;filter:url(#filter3437);font-family:Arial;-inkscape-font-specification:Arial Bold"
               x="317.29742"
               y="855.19946"
               id="text3672"
               sodipodi:linespacing="125%"><tspan
                 sodipodi:role="line"
                 x="317.29742"
                 y="855.19946"
                 id="tspan3680"
                 style="font-size:38.40000152999999727px;font-style:normal;font-variant:normal;font-weight:bold;font-stretch:normal;font-family:Impact;-inkscape-font-specification:Impact Bold;fill:#1a1a1a">bicicletadacurtiba.org</tspan></text>
          </g>
        </g>
      </g>
      <g
         id="g3185" />
    </g>
  </g>
</svg>
